<?xml version="1.0" encoding="UTF-8" standalone="no"?><!DOCTYPE svg PUBLIC "-//W3C//DTD SVG 1.1//EN" "http://www.w3.org/Graphics/SVG/1.1/DTD/svg11.dtd"><svg width="100%" height="100%" viewBox="0 0 91 91" version="1.1" xmlns="http://www.w3.org/2000/svg" xmlns:xlink="http://www.w3.org/1999/xlink" xml:space="preserve" xmlns:serif="http://www.serif.com/" style="fill-rule:evenodd;clip-rule:evenodd;stroke-linejoin:round;stroke-miterlimit:2;"><g><g><path d="M45.237,2.015c24.004,0 43.473,19.468 43.473,43.473c0,24.004 -19.469,43.472 -43.473,43.472c-24.005,0 -43.473,-19.468 -43.473,-43.472c0,-24.005 19.468,-43.473 43.473,-43.473m0,-1.449c24.804,0 44.922,20.117 44.922,44.922c0,24.804 -20.118,44.921 -44.922,44.921c-24.805,0 -44.922,-20.117 -44.922,-44.921c0,-24.805 20.117,-44.922 44.922,-44.922" style="fill:#7a7a7a;"/><path d="M43.503,3.847c0.427,-0.018 0.856,-0.028 1.285,-0.033l0,24.553l-1.285,-24.52Zm-2.177,0.145c0.425,-0.039 0.853,-0.072 1.282,-0.099l1.285,24.523l-2.567,-24.424Zm-2.167,0.259c0.424,-0.062 0.849,-0.117 1.276,-0.166l2.567,24.425l-3.843,-24.259Zm-2.15,0.371c0.419,-0.084 0.841,-0.16 1.265,-0.231l3.842,24.258l-5.107,-24.027Zm-2.128,0.484c0.414,-0.106 0.832,-0.204 1.251,-0.297l5.107,24.028l-6.358,-23.731Zm-2.1,0.596c0.409,-0.127 0.82,-0.248 1.234,-0.363l6.358,23.729l-7.592,-23.366Zm-2.065,0.708c0.402,-0.149 0.805,-0.294 1.212,-0.43l7.592,23.364l-8.804,-22.934Zm-2.024,0.815c0.393,-0.17 0.788,-0.336 1.187,-0.494l8.804,22.935l-9.991,-22.441Zm-1.979,0.92c0.383,-0.191 0.77,-0.376 1.16,-0.555l9.991,22.441l-11.151,-21.886Zm-1.928,1.023c0.373,-0.211 0.749,-0.416 1.13,-0.615l11.15,21.885l-12.28,-21.27Zm-1.872,1.12c0.361,-0.229 0.727,-0.453 1.096,-0.671l12.28,21.269l-13.376,-20.598Zm-1.811,1.217c0.348,-0.248 0.703,-0.489 1.06,-0.727l13.375,20.596l-14.435,-19.869Zm-1.744,1.313c0.336,-0.266 0.675,-0.528 1.019,-0.784l14.435,19.868l-15.454,-19.084Zm-1.672,1.401c0.321,-0.284 0.645,-0.563 0.975,-0.837l15.454,19.084l-16.429,-18.247Zm-1.599,1.485c0.306,-0.299 0.617,-0.595 0.932,-0.885l16.429,18.246l-17.361,-17.361Zm-1.52,1.566c0.291,-0.315 0.587,-0.626 0.886,-0.932l17.362,17.362l-18.248,-16.43Zm-1.436,1.642c0.274,-0.33 0.554,-0.655 0.837,-0.976l18.246,16.429l-19.083,-15.453Zm-1.348,1.716c0.256,-0.344 0.518,-0.683 0.784,-1.019l19.083,15.453l-19.867,-14.434Zm-1.256,1.785c0.238,-0.358 0.479,-0.712 0.728,-1.061l19.87,14.437l-20.598,-13.376Zm-1.161,1.847c0.219,-0.369 0.442,-0.735 0.671,-1.097l20.598,13.377l-21.269,-12.28Zm-1.064,1.905c0.199,-0.38 0.404,-0.756 0.615,-1.129l21.269,12.28l-21.884,-11.151Zm-0.963,1.959c0.179,-0.39 0.365,-0.777 0.555,-1.16l21.886,11.151l-22.441,-9.991Zm-0.859,2.006c0.158,-0.399 0.324,-0.794 0.494,-1.187l22.442,9.991l-22.936,-8.804Zm-0.751,2.049c0.137,-0.407 0.281,-0.81 0.431,-1.212l22.934,8.804l-23.365,-7.592Zm-0.641,2.087c0.115,-0.414 0.236,-0.825 0.364,-1.234l23.366,7.592l-23.73,-6.358Zm-0.53,2.116c0.093,-0.418 0.191,-0.836 0.297,-1.25l23.731,6.358l-24.028,-5.108Zm-0.418,2.143c0.071,-0.424 0.148,-0.846 0.232,-1.265l24.028,5.107l-24.26,-3.842Zm-0.305,2.16c0.049,-0.427 0.103,-0.852 0.165,-1.275l24.259,3.843l-24.424,-2.568Zm-0.193,2.173c0.027,-0.428 0.06,-0.856 0.1,-1.281l24.423,2.567l-24.523,-1.286Zm-0.079,2.181c0.005,-0.43 0.016,-0.858 0.033,-1.285l24.522,1.285l-24.555,0Zm0.033,2.182c-0.018,-0.427 -0.028,-0.855 -0.033,-1.285l24.556,0l-24.523,1.285Zm0.146,2.177c-0.041,-0.425 -0.073,-0.852 -0.1,-1.282l24.524,-1.285l-24.424,2.567Zm0.258,2.167c-0.062,-0.423 -0.116,-0.849 -0.165,-1.275l24.424,-2.567l-24.259,3.842Zm0.372,2.15c-0.084,-0.419 -0.161,-0.841 -0.232,-1.264l24.26,-3.843l-24.028,5.107Zm0.483,2.129c-0.106,-0.415 -0.204,-0.833 -0.297,-1.252l24.026,-5.106l-23.729,6.358Zm0.597,2.099c-0.128,-0.408 -0.249,-0.82 -0.364,-1.234l23.73,-6.358l-23.366,7.592Zm0.708,2.065c-0.15,-0.401 -0.294,-0.805 -0.431,-1.212l23.365,-7.592l-22.934,8.804Zm0.814,2.025c-0.17,-0.394 -0.336,-0.789 -0.494,-1.188l22.936,-8.804l-22.442,9.992Zm0.92,1.978c-0.19,-0.383 -0.376,-0.769 -0.555,-1.16l22.443,-9.992l-21.888,11.152Zm1.023,1.928c-0.211,-0.373 -0.416,-0.749 -0.615,-1.129l21.886,-11.151l-21.271,12.28Zm1.12,1.873c-0.229,-0.362 -0.452,-0.728 -0.671,-1.097l21.269,-12.28l-20.598,13.377Zm1.218,1.811c-0.249,-0.349 -0.49,-0.704 -0.728,-1.06l20.596,-13.375l-19.868,14.435Zm1.312,1.743c-0.266,-0.336 -0.528,-0.675 -0.784,-1.019l19.868,-14.435l-19.084,15.454Zm1.401,1.673c-0.283,-0.321 -0.563,-0.646 -0.837,-0.976l19.084,-15.454l-18.247,16.43Zm1.485,1.598c-0.3,-0.306 -0.595,-0.616 -0.886,-0.932l18.247,-16.429l-17.361,17.361Zm1.566,1.52c-0.316,-0.291 -0.626,-0.586 -0.932,-0.886l17.362,-17.362l-16.43,18.248Zm1.642,1.436c-0.33,-0.273 -0.654,-0.553 -0.976,-0.836l16.43,-18.248l-15.454,19.084Zm1.716,1.348c-0.344,-0.256 -0.683,-0.518 -1.019,-0.784l15.454,-19.083l-14.435,19.867Zm1.785,1.256c-0.357,-0.238 -0.712,-0.479 -1.06,-0.727l14.435,-19.869l-13.375,20.596Zm1.847,1.161c-0.369,-0.218 -0.735,-0.441 -1.096,-0.671l13.376,-20.598l-12.28,21.269Zm1.906,1.064c-0.381,-0.199 -0.757,-0.404 -1.13,-0.614l12.28,-21.27l-11.15,21.884Zm1.958,0.963c-0.39,-0.179 -0.777,-0.364 -1.16,-0.555l11.151,-21.885l-9.991,22.44Zm2.006,0.859c-0.399,-0.158 -0.794,-0.324 -1.187,-0.494l9.991,-22.441l-8.804,22.935Zm2.049,0.751c-0.407,-0.136 -0.81,-0.281 -1.212,-0.43l8.804,-22.935l-7.592,23.365Zm2.087,0.641c-0.414,-0.115 -0.825,-0.235 -1.234,-0.363l7.592,-23.365l-6.358,23.728Zm2.117,0.531c-0.419,-0.094 -0.837,-0.192 -1.251,-0.298l6.358,-23.729l-5.107,24.027Zm2.142,0.417c-0.424,-0.071 -0.846,-0.147 -1.265,-0.231l5.107,-24.028l-3.842,24.259Zm2.161,0.306c-0.428,-0.049 -0.853,-0.104 -1.276,-0.166l3.842,-24.257l-2.566,24.423Zm2.173,0.192c-0.429,-0.026 -0.857,-0.06 -1.282,-0.099l2.567,-24.423l-1.285,24.522Zm2.18,0.079c-0.43,-0.004 -0.858,-0.015 -1.285,-0.033l1.285,-24.521l0,24.554Zm2.182,-0.033c-0.426,0.018 -0.855,0.028 -1.285,0.033l0,-24.552l1.285,24.519Zm2.177,-0.145c-0.425,0.04 -0.852,0.072 -1.281,0.099l-1.285,-24.523l2.566,24.424Zm2.167,-0.259c-0.423,0.062 -0.848,0.116 -1.275,0.166l-2.567,-24.424l3.842,24.258Zm2.151,-0.371c-0.42,0.084 -0.842,0.16 -1.265,0.231l-3.842,-24.257l5.107,24.026Zm2.128,-0.484c-0.414,0.106 -0.832,0.204 -1.251,0.298l-5.108,-24.029l6.359,23.731Zm2.099,-0.596c-0.408,0.128 -0.819,0.248 -1.233,0.363l-6.359,-23.729l7.592,23.366Zm2.065,-0.708c-0.401,0.149 -0.805,0.294 -1.212,0.43l-7.592,-23.365l8.804,22.935Zm2.025,-0.815c-0.394,0.17 -0.789,0.336 -1.188,0.494l-8.804,-22.935l9.992,22.441Zm1.978,-0.92c-0.383,0.191 -0.77,0.376 -1.16,0.555l-9.99,-22.439l11.15,21.884Zm1.929,-1.022c-0.374,0.211 -0.75,0.415 -1.13,0.614l-11.151,-21.884l12.281,21.27Zm1.872,-1.121c-0.361,0.23 -0.728,0.453 -1.097,0.672l-12.279,-21.27l13.376,20.598Zm1.811,-1.217c-0.349,0.248 -0.703,0.489 -1.06,0.727l-13.375,-20.596l14.435,19.869Zm1.743,-1.313c-0.335,0.267 -0.675,0.528 -1.019,0.784l-14.434,-19.867l15.453,19.083Zm1.673,-1.4c-0.321,0.283 -0.646,0.563 -0.976,0.836l-15.453,-19.083l16.429,18.247Zm1.599,-1.485c-0.307,0.299 -0.617,0.594 -0.932,0.885l-16.43,-18.247l17.362,17.362Zm1.519,-1.567c-0.29,0.316 -0.586,0.626 -0.886,0.932l-17.361,-17.361l18.247,16.429Zm1.436,-1.642c-0.273,0.33 -0.553,0.655 -0.836,0.976l-18.247,-16.43l19.083,15.454Zm1.348,-1.716c-0.255,0.344 -0.518,0.683 -0.784,1.019l-19.084,-15.454l19.868,14.435Zm1.256,-1.784c-0.238,0.356 -0.479,0.711 -0.727,1.06l-19.87,-14.436l20.597,13.376Zm1.162,-1.848c-0.219,0.369 -0.442,0.735 -0.672,1.097l-20.598,-13.377l21.27,12.28Zm1.064,-1.905c-0.2,0.38 -0.405,0.756 -0.615,1.13l-21.271,-12.281l21.886,11.151Zm0.962,-1.958c-0.179,0.39 -0.364,0.776 -0.555,1.159l-21.885,-11.151l22.44,9.992Zm0.86,-2.007c-0.159,0.399 -0.325,0.794 -0.495,1.188l-22.44,-9.992l22.935,8.804Zm0.751,-2.049c-0.137,0.407 -0.282,0.811 -0.431,1.212l-22.934,-8.804l23.365,7.592Zm0.64,-2.087c-0.115,0.414 -0.236,0.826 -0.363,1.234l-23.366,-7.592l23.729,6.358Zm0.531,-2.116c-0.094,0.419 -0.192,0.836 -0.298,1.251l-23.731,-6.359l24.029,5.108Zm0.418,-2.142c-0.072,0.424 -0.148,0.846 -0.232,1.264l-24.029,-5.107l24.261,3.843Zm0.305,-2.161c-0.049,0.427 -0.103,0.852 -0.165,1.275l-24.26,-3.842l24.425,2.567Zm0.192,-2.174c-0.027,0.43 -0.059,0.857 -0.099,1.282l-24.423,-2.567l24.522,1.285Zm0.08,-2.18c-0.005,0.43 -0.016,0.858 -0.034,1.285l-24.521,-1.285l24.555,0Zm-0.034,-2.182c0.019,0.427 0.028,0.856 0.034,1.285l-24.555,0l24.521,-1.285Zm-0.145,-2.177c0.04,0.425 0.072,0.853 0.099,1.282l-24.522,1.285l24.423,-2.567Zm-0.258,-2.167c0.062,0.423 0.116,0.849 0.165,1.275l-24.423,2.567l24.258,-3.842Zm-0.372,-2.15c0.084,0.419 0.16,0.841 0.232,1.265l-24.258,3.842l24.026,-5.107Zm-0.484,-2.128c0.106,0.414 0.204,0.832 0.298,1.25l-24.029,5.108l23.731,-6.358Zm-0.596,-2.1c0.127,0.408 0.248,0.82 0.363,1.234l-23.729,6.358l23.366,-7.592Zm-0.708,-2.065c0.149,0.402 0.294,0.805 0.431,1.212l-23.365,7.592l22.934,-8.804Zm-0.815,-2.024c0.17,0.393 0.336,0.788 0.495,1.187l-22.936,8.804l22.441,-9.991Zm-0.92,-1.979c0.191,0.383 0.376,0.77 0.555,1.16l-22.441,9.991l21.886,-11.151Zm-1.022,-1.928c0.21,0.373 0.415,0.749 0.615,1.129l-21.886,11.152l21.271,-12.281Zm-1.121,-1.873c0.23,0.362 0.453,0.728 0.672,1.097l-21.27,12.28l20.598,-13.377Zm-1.217,-1.811c0.248,0.349 0.489,0.703 0.727,1.061l-20.596,13.375l19.869,-14.436Zm-1.313,-1.743c0.266,0.336 0.529,0.675 0.784,1.019l-19.867,14.435l19.083,-15.454Zm-1.4,-1.673c0.283,0.321 0.563,0.646 0.836,0.976l-19.083,15.454l18.247,-16.43Zm-1.486,-1.598c0.3,0.306 0.595,0.617 0.886,0.932l-18.246,16.428l17.36,-17.36Zm-1.565,-1.519c0.315,0.29 0.625,0.586 0.932,0.885l-17.361,17.361l16.429,-18.246Zm-1.643,-1.437c0.33,0.274 0.655,0.553 0.976,0.837l-16.429,18.247l15.453,-19.084Zm-1.715,-1.348c0.343,0.256 0.683,0.518 1.018,0.784l-15.453,19.084l14.435,-19.868Zm-1.785,-1.256c0.357,0.238 0.711,0.479 1.06,0.727l-14.435,19.868l13.375,-20.595Zm-1.848,-1.161c0.369,0.218 0.735,0.442 1.097,0.671l-13.376,20.597l12.279,-21.268Zm-1.905,-1.064c0.38,0.199 0.756,0.404 1.13,0.615l-12.28,21.269l11.15,-21.884Zm-1.959,-0.963c0.39,0.179 0.777,0.364 1.16,0.555l-11.15,21.884l9.99,-22.439Zm-2.006,-0.859c0.399,0.158 0.794,0.324 1.188,0.494l-9.992,22.441l8.804,-22.935Zm-2.049,-0.751c0.407,0.137 0.811,0.281 1.212,0.43l-8.803,22.934l7.591,-23.364Zm-2.086,-0.641c0.414,0.115 0.825,0.236 1.233,0.363l-7.591,23.365l6.358,-23.728Zm-2.117,-0.53c0.419,0.093 0.837,0.191 1.251,0.297l-6.358,23.728l5.107,-24.025Zm-2.142,-0.418c0.423,0.071 0.845,0.147 1.265,0.231l-5.107,24.026l3.842,-24.257Zm-2.161,-0.306c0.427,0.049 0.852,0.104 1.275,0.166l-3.842,24.257l2.567,-24.423Zm-2.173,-0.192c0.429,0.027 0.856,0.06 1.281,0.099l-2.566,24.422l1.285,-24.521Zm-2.181,-0.079c0.43,0.004 0.859,0.015 1.285,0.033l-1.285,24.52l0,-24.553Z" style="fill:#7a7a7a;"/><path d="M23.961,23.524l1.508,1.257l-0.934,-0.242l0.436,0.682l-0.684,-0.437l0.243,0.935l-1.257,-1.507l-0.884,-0.229l-0.732,0.965l-0.025,0.008l-0.278,0.499c-0.26,0.465 -0.495,0.912 -0.697,1.406l-0.11,0.293l-0.097,0.119c-0.803,0.976 -1.561,2.025 -2.264,3.075c-0.664,0.991 -1.356,2.081 -1.86,3.165c-0.41,1.123 -0.692,2.382 -0.922,3.552c-0.245,1.24 -0.451,2.517 -0.574,3.775l-0.015,0.153l-0.129,0.285c-0.207,0.492 -0.357,0.975 -0.502,1.488l-0.156,0.548l0.011,0.023l-0.164,1.201l0.787,0.463l1.956,-0.177l-0.833,0.489l0.791,0.174l-0.792,0.174l0.832,0.491l-1.954,-0.178l-0.787,0.463l0.164,1.201l-0.011,0.023l0.156,0.548c0.145,0.513 0.295,0.997 0.502,1.489l0.129,0.284l0.015,0.153c0.123,1.258 0.329,2.536 0.574,3.775c0.23,1.17 0.512,2.429 0.922,3.552c0.504,1.084 1.196,2.174 1.86,3.165c0.703,1.05 1.461,2.099 2.264,3.075l0.097,0.119l0.11,0.292c0.202,0.495 0.437,0.942 0.697,1.408l0.278,0.498l0.025,0.008l0.732,0.966l0.884,-0.229l1.258,-1.509l-0.243,0.934l0.682,-0.435l-0.437,0.683l0.936,-0.242l-1.508,1.255l-0.23,0.886l0.967,0.731l0.007,0.026l0.498,0.277c0.467,0.26 0.913,0.495 1.408,0.697l0.292,0.11l0.119,0.098c0.976,0.803 2.025,1.56 3.075,2.263c0.992,0.665 2.081,1.356 3.165,1.86c1.123,0.41 2.382,0.691 3.552,0.923c1.239,0.245 2.517,0.451 3.775,0.573l0.153,0.015l0.285,0.129c0.492,0.207 0.975,0.357 1.488,0.503l0.549,0.156l0.023,-0.013l1.2,0.166l0.463,-0.787l-0.178,-1.956l0.49,0.832l0.174,-0.791l0.175,0.793l0.489,-0.833l-0.177,1.954l0.463,0.788l1.2,-0.166l0.023,0.013l0.55,-0.156c0.512,-0.146 0.995,-0.296 1.487,-0.503l0.286,-0.129l0.152,-0.015c1.258,-0.122 2.536,-0.328 3.775,-0.573c1.171,-0.232 2.429,-0.513 3.552,-0.923c1.085,-0.504 2.174,-1.195 3.166,-1.86c1.049,-0.703 2.098,-1.46 3.074,-2.263l0.119,-0.098l0.292,-0.11c0.495,-0.202 0.942,-0.437 1.408,-0.697l0.498,-0.277l0.008,-0.026l0.966,-0.731l-0.229,-0.885l-1.509,-1.257l0.934,0.242l-0.435,-0.681l0.683,0.436l-0.242,-0.935l1.256,1.507l0.885,0.23l0.732,-0.966l0.024,-0.008l0.279,-0.498c0.259,-0.466 0.495,-0.913 0.696,-1.408l0.11,-0.292l0.098,-0.119c0.802,-0.976 1.56,-2.025 2.263,-3.075c0.665,-0.991 1.356,-2.081 1.861,-3.165c0.409,-1.123 0.691,-2.382 0.922,-3.552c0.244,-1.239 0.451,-2.517 0.573,-3.775l0.015,-0.153l0.13,-0.284c0.207,-0.492 0.356,-0.976 0.502,-1.489l0.156,-0.548l-0.012,-0.023l0.165,-1.201l-0.788,-0.463l-1.955,0.178l0.832,-0.49l-0.79,-0.174l0.792,-0.174l-0.833,-0.49l1.954,0.178l0.788,-0.464l-0.165,-1.201l0.012,-0.023l-0.156,-0.548c-0.146,-0.513 -0.295,-0.996 -0.502,-1.488l-0.13,-0.285l-0.015,-0.153c-0.122,-1.258 -0.329,-2.535 -0.573,-3.775c-0.231,-1.17 -0.513,-2.429 -0.922,-3.552c-0.505,-1.084 -1.196,-2.174 -1.861,-3.165c-0.703,-1.05 -1.461,-2.099 -2.263,-3.075l-0.098,-0.119l-0.11,-0.293c-0.201,-0.494 -0.437,-0.941 -0.696,-1.406l-0.279,-0.499l-0.024,-0.008l-0.732,-0.965l-0.885,0.229l-1.257,1.508l0.242,-0.934l-0.681,0.435l0.437,-0.683l-0.936,0.243l1.507,-1.257l0.23,-0.884l-0.966,-0.732l-0.008,-0.025l-0.498,-0.278c-0.466,-0.26 -0.913,-0.495 -1.408,-0.697l-0.292,-0.11l-0.119,-0.098c-0.976,-0.803 -2.025,-1.56 -3.074,-2.263c-0.992,-0.665 -2.081,-1.356 -3.165,-1.86c-1.123,-0.41 -2.382,-0.691 -3.553,-0.923c-1.239,-0.245 -2.517,-0.451 -3.775,-0.573l-0.152,-0.015l-0.286,-0.129c-0.492,-0.207 -0.975,-0.357 -1.487,-0.503l-0.55,-0.155l-0.023,0.012l-1.2,-0.165l-0.463,0.786l0.178,1.957l-0.489,-0.832l-0.174,0.79l-0.175,-0.792l-0.49,0.833l0.177,-1.955l-0.463,-0.787l-1.2,0.165l-0.023,-0.012l-0.549,0.155c-0.513,0.146 -0.996,0.296 -1.488,0.503l-0.285,0.129l-0.153,0.015c-1.258,0.122 -2.536,0.328 -3.775,0.573c-1.171,0.232 -2.43,0.513 -3.553,0.923c-1.084,0.504 -2.173,1.195 -3.164,1.86c-1.05,0.703 -2.099,1.46 -3.075,2.263l-0.119,0.098l-0.292,0.11c-0.495,0.202 -0.941,0.437 -1.408,0.697l-0.498,0.278l-0.007,0.025l-0.967,0.732l0.23,0.884Zm-12.046,1.982l-0.278,-1.121c-0.415,-1.668 0.088,-3.059 1.249,-4.025l0.034,-0.391c0.107,-1.248 0.807,-2.21 1.816,-2.696c-0.447,-0.669 -0.821,-1.381 -1.001,-2.177l-0.323,-1.433l1.433,0.323c0.796,0.178 1.508,0.553 2.177,1c0.486,-1.009 1.448,-1.708 2.696,-1.815l0.391,-0.034c0.966,-1.162 2.357,-1.664 4.026,-1.249l1.12,0.278c0.516,-0.146 1.062,-0.195 1.606,-0.158c1.192,0.082 2.339,0.564 3.286,1.283l0.794,0.601c0.452,0.05 0.907,0.184 1.373,0.398c0.179,-0.481 0.406,-0.898 0.691,-1.253l0.135,-0.985c0.232,-1.686 1.175,-3.443 2.673,-4.271l0.586,-0.973c0.889,-1.477 2.226,-2.104 3.732,-1.964l0.299,-0.252c0.956,-0.805 2.132,-0.99 3.189,-0.622c0.158,-0.789 0.397,-1.558 0.832,-2.247l0.785,-1.242l0.786,1.241c0.437,0.69 0.675,1.459 0.832,2.248c1.058,-0.368 2.233,-0.183 3.189,0.622l0.3,0.252c1.506,-0.14 2.842,0.487 3.731,1.964l0.586,0.973c1.498,0.828 2.442,2.585 2.673,4.271l0.136,0.986c0.285,0.355 0.512,0.771 0.69,1.252c0.466,-0.214 0.922,-0.348 1.374,-0.398l0.793,-0.601c0.948,-0.718 2.094,-1.201 3.287,-1.283c0.543,-0.037 1.09,0.012 1.606,0.158l1.12,-0.278c1.669,-0.415 3.06,0.088 4.025,1.249l0.392,0.034c1.247,0.107 2.209,0.806 2.696,1.815c0.668,-0.447 1.38,-0.821 2.176,-1l1.433,-0.323l-0.322,1.433c-0.179,0.796 -0.554,1.508 -1.001,2.177c1.009,0.487 1.708,1.448 1.815,2.696l0.034,0.391c1.162,0.966 1.665,2.357 1.249,4.026l-0.277,1.12c0.145,0.516 0.194,1.062 0.157,1.606c-0.081,1.192 -0.564,2.339 -1.282,3.286l-0.602,0.794c-0.05,0.452 -0.184,0.907 -0.397,1.373c0.48,0.179 0.897,0.406 1.252,0.691l0.986,0.135c1.685,0.232 3.443,1.175 4.269,2.673l0.975,0.586c1.476,0.889 2.103,2.226 1.964,3.731l0.252,0.3c0.804,0.956 0.99,2.132 0.621,3.189c0.789,0.158 1.558,0.397 2.248,0.832l1.242,0.785l-1.242,0.786c-0.689,0.436 -1.458,0.675 -2.248,0.832c0.369,1.058 0.183,2.234 -0.621,3.189l-0.252,0.3c0.139,1.506 -0.488,2.842 -1.964,3.731l-0.975,0.586c-0.826,1.498 -2.583,2.442 -4.269,2.673l-0.987,0.136c-0.354,0.285 -0.771,0.512 -1.251,0.69c0.213,0.466 0.347,0.922 0.397,1.374l0.601,0.793c0.719,0.947 1.202,2.094 1.283,3.286c0.037,0.544 -0.012,1.09 -0.157,1.607l0.277,1.12c0.415,1.669 -0.087,3.059 -1.249,4.026l-0.034,0.391c-0.107,1.247 -0.806,2.209 -1.815,2.695c0.447,0.669 0.82,1.381 1,2.177l0.324,1.433l-1.434,-0.322c-0.795,-0.179 -1.508,-0.554 -2.177,-1.001c-0.486,1.009 -1.448,1.708 -2.695,1.815l-0.392,0.034c-0.965,1.162 -2.356,1.664 -4.026,1.249l-1.119,-0.278c-0.516,0.146 -1.063,0.195 -1.606,0.158c-1.193,-0.081 -2.339,-0.564 -3.287,-1.283l-0.793,-0.601c-0.453,-0.05 -0.908,-0.184 -1.374,-0.398c-0.179,0.481 -0.406,0.898 -0.69,1.253l-0.136,0.986c-0.231,1.685 -1.175,3.442 -2.673,4.27l-0.586,0.973c-0.889,1.477 -2.225,2.104 -3.731,1.964l-0.3,0.253c-0.956,0.804 -2.132,0.989 -3.189,0.621c-0.158,0.789 -0.396,1.558 -0.832,2.247l-0.785,1.242l-0.786,-1.241c-0.436,-0.689 -0.675,-1.458 -0.832,-2.248c-1.057,0.368 -2.233,0.183 -3.189,-0.621l-0.3,-0.253c-1.505,0.14 -2.842,-0.487 -3.731,-1.964l-0.586,-0.973c-1.498,-0.828 -2.441,-2.585 -2.673,-4.27l-0.136,-0.986c-0.284,-0.356 -0.511,-0.772 -0.69,-1.253c-0.466,0.214 -0.921,0.348 -1.374,0.398l-0.793,0.601c-0.947,0.718 -2.094,1.202 -3.286,1.283c-0.544,0.037 -1.09,-0.012 -1.606,-0.158l-1.12,0.278c-1.669,0.415 -3.06,-0.088 -4.026,-1.249l-0.391,-0.034c-1.248,-0.107 -2.21,-0.806 -2.696,-1.815c-0.669,0.447 -1.381,0.821 -2.176,1l-1.434,0.324l0.322,-1.434c0.179,-0.796 0.554,-1.508 1.001,-2.177c-1.009,-0.487 -1.708,-1.448 -1.815,-2.696l-0.034,-0.39c-1.161,-0.967 -1.664,-2.357 -1.249,-4.027l0.278,-1.119c-0.146,-0.517 -0.195,-1.063 -0.157,-1.607c0.081,-1.192 0.564,-2.339 1.282,-3.286l0.602,-0.793c0.05,-0.453 0.184,-0.908 0.397,-1.374c-0.48,-0.179 -0.897,-0.405 -1.253,-0.69l-0.985,-0.136c-1.686,-0.231 -3.443,-1.175 -4.27,-2.673l-0.974,-0.586c-1.477,-0.889 -2.104,-2.225 -1.964,-3.731l-0.252,-0.3c-0.805,-0.956 -0.99,-2.132 -0.622,-3.189c-0.789,-0.157 -1.557,-0.396 -2.247,-0.832l-1.242,-0.785l1.241,-0.786c0.69,-0.436 1.459,-0.675 2.248,-0.832c-0.368,-1.058 -0.183,-2.233 0.622,-3.189l0.252,-0.3c-0.14,-1.505 0.487,-2.842 1.964,-3.731l0.974,-0.586c0.827,-1.498 2.584,-2.441 4.27,-2.673l0.986,-0.136c0.355,-0.284 0.772,-0.511 1.252,-0.69c-0.213,-0.466 -0.348,-0.921 -0.397,-1.374l-0.602,-0.793c-0.718,-0.947 -1.201,-2.094 -1.282,-3.286c-0.038,-0.544 0.012,-1.09 0.157,-1.606" style="fill:#7a7a7a;"/><path d="M21.691,22.842c-2.35,-0.61 -7.435,-0.785 -9.153,1.319c-0.464,-1.869 0.519,-3.004 1.801,-3.637c2.259,-1.115 5.67,0.916 7.352,2.318m2.206,-1.493c0.88,-2.869 3.032,-6.288 5.689,-7.318c-1.765,-1.339 -3.94,-1.455 -5.19,-0.386c-1.905,1.628 -1.699,5.59 -1.143,8.192l0.644,-0.488Zm-1.306,0.592c-0.609,-2.349 -0.785,-7.435 1.32,-9.151c-1.87,-0.465 -3.004,0.517 -3.637,1.8c-1.116,2.259 0.916,5.67 2.317,7.351m-7.95,-7.049c0.249,1.102 0.992,2.084 1.67,2.96c-1.315,0.005 -2.348,0.841 -2.465,2.196c1.921,-1.226 5.166,0.138 6.875,1.355l1.195,0.763l-0.764,-1.195c-1.216,-1.708 -2.581,-4.953 -1.354,-6.875c-1.356,0.117 -2.192,1.15 -2.197,2.466c-0.875,-0.677 -1.857,-1.423 -2.96,-1.67m-2.067,31.232c-2.092,1.23 -5.812,4.703 -5.538,7.405c-1.651,-0.994 -1.758,-2.491 -1.299,-3.845c0.809,-2.386 4.658,-3.362 6.837,-3.56m0.504,-2.616c-1.405,-2.65 -2.302,-6.589 -1.151,-9.197c-2.195,0.302 -3.815,1.757 -3.943,3.397c-0.196,2.498 2.751,5.153 4.984,6.601l0.11,-0.801Zm-0.504,1.343c-2.092,-1.231 -5.812,-4.703 -5.538,-7.404c-1.651,0.993 -1.758,2.49 -1.299,3.844c0.809,2.386 4.658,3.362 6.837,3.56m-10.606,0.636c0.956,0.604 2.175,0.773 3.274,0.912c-0.927,0.934 -1.066,2.256 -0.19,3.297c0.492,-2.226 3.751,-3.556 5.819,-3.903l1.384,-0.306l-1.384,-0.304c-2.068,-0.349 -5.327,-1.678 -5.819,-3.904c-0.876,1.041 -0.737,2.363 0.19,3.297c-1.098,0.139 -2.32,0.307 -3.274,0.911m10.232,-9.07c-0.249,1.867 0.35,4.208 1.09,6.094c0.166,-0.585 0.305,-1.039 0.545,-1.605l0.07,-0.156c0.204,-2.095 0.82,-5.578 1.562,-7.593c0.901,-1.95 2.928,-4.849 4.265,-6.474l0.06,-0.16c0.232,-0.57 0.454,-0.989 0.751,-1.521c-1.858,0.81 -3.937,2.043 -5.081,3.539c-1.34,1.752 -1.08,3.052 -0.021,4.605c-1.847,0.348 -2.949,1.084 -3.241,3.271m0.878,11.05c-1.405,2.651 -2.302,6.589 -1.151,9.197c-2.195,-0.302 -3.815,-1.757 -3.943,-3.397c-0.196,-2.498 2.751,-5.154 4.984,-6.601l0.11,0.801Zm9.513,21.566c-0.609,2.35 -0.785,7.436 1.32,9.153c-1.87,0.464 -3.004,-0.518 -3.638,-1.801c-1.115,-2.259 0.917,-5.67 2.318,-7.352m-1.494,-2.206c-2.868,-0.88 -6.286,-3.031 -7.316,-5.689c-1.339,1.766 -1.455,3.94 -0.387,5.19c1.628,1.906 5.59,1.699 8.192,1.143l-0.489,-0.644Zm0.594,1.307c-2.35,0.608 -7.435,0.784 -9.153,-1.321c-0.464,1.87 0.519,3.005 1.801,3.638c2.259,1.115 5.67,-0.917 7.352,-2.317m-7.05,7.949c1.103,-0.249 2.085,-0.992 2.96,-1.67c0.005,1.315 0.841,2.349 2.197,2.466c-1.227,-1.922 0.138,-5.167 1.354,-6.876l0.763,-1.194l-1.194,0.764c-1.709,1.215 -4.954,2.58 -6.875,1.354c0.116,1.356 1.15,2.191 2.465,2.197c-0.678,0.874 -1.422,1.857 -1.67,2.959m0.821,-13.648c1.144,1.496 3.223,2.728 5.081,3.538c-0.297,-0.531 -0.519,-0.95 -0.751,-1.521l-0.06,-0.16c-1.337,-1.626 -3.364,-4.524 -4.265,-6.473c-0.742,-2.017 -1.358,-5.499 -1.562,-7.593l-0.07,-0.156c-0.24,-0.567 -0.379,-1.021 -0.545,-1.606c-0.74,1.886 -1.339,4.227 -1.09,6.094c0.292,2.186 1.394,2.923 3.241,3.271c-1.059,1.553 -1.319,2.853 0.021,4.606m8.435,7.192c0.88,2.868 3.032,6.287 5.689,7.317c-1.765,1.339 -3.94,1.455 -5.19,0.386c-1.905,-1.627 -1.699,-5.589 -1.143,-8.192l0.644,0.489Zm21.976,8.523c1.231,2.092 4.703,5.813 7.405,5.538c-0.994,1.651 -2.49,1.759 -3.845,1.299c-2.386,-0.809 -3.362,-4.657 -3.56,-6.837m-2.616,-0.504c-2.65,1.406 -6.589,2.302 -9.197,1.151c0.302,2.195 1.757,3.815 3.397,3.944c2.498,0.196 5.154,-2.752 6.601,-4.985l-0.801,-0.11Zm1.343,0.504c-1.23,2.092 -4.703,5.813 -7.404,5.538c0.993,1.651 2.49,1.759 3.844,1.299c2.387,-0.809 3.362,-4.657 3.56,-6.837m0.636,10.606c0.604,-0.956 0.773,-2.175 0.912,-3.273c0.934,0.926 2.256,1.066 3.297,0.19c-2.226,-0.492 -3.555,-3.751 -3.904,-5.819l-0.305,-1.385l-0.304,1.385c-0.348,2.068 -1.678,5.327 -3.904,5.819c1.041,0.876 2.363,0.736 3.297,-0.19c0.139,1.097 0.307,2.319 0.911,3.273m-9.07,-10.231c1.867,0.249 4.209,-0.35 6.095,-1.091c-0.586,-0.166 -1.04,-0.305 -1.606,-0.544l-0.156,-0.071c-2.095,-0.204 -5.577,-0.82 -7.593,-1.561c-1.95,-0.901 -4.848,-2.928 -6.474,-4.265l-0.16,-0.061c-0.57,-0.231 -0.989,-0.454 -1.521,-0.75c0.811,1.857 2.043,3.936 3.539,5.08c1.752,1.34 3.053,1.081 4.605,0.021c0.349,1.847 1.085,2.949 3.271,3.242m11.05,-0.879c2.651,1.406 6.59,2.302 9.196,1.151c-0.301,2.195 -1.756,3.815 -3.396,3.944c-2.497,0.196 -5.153,-2.752 -6.601,-4.985l0.801,-0.11Zm21.567,-9.512c2.349,0.608 7.435,0.784 9.152,-1.321c0.464,1.87 -0.518,3.005 -1.801,3.638c-2.259,1.115 -5.67,-0.917 -7.351,-2.317m-2.207,1.493c-0.88,2.868 -3.031,6.287 -5.689,7.317c1.766,1.339 3.94,1.455 5.191,0.386c1.904,-1.627 1.698,-5.589 1.143,-8.192l-0.645,0.489Zm1.306,-0.594c0.61,2.35 0.785,7.436 -1.319,9.153c1.87,0.464 3.004,-0.518 3.637,-1.801c1.115,-2.259 -0.916,-5.67 -2.318,-7.352m7.95,7.05c-0.249,-1.102 -0.992,-2.084 -1.67,-2.959c1.315,-0.006 2.349,-0.841 2.466,-2.197c-1.922,1.226 -5.167,-0.139 -6.875,-1.354l-1.195,-0.764l0.763,1.194c1.217,1.709 2.581,4.954 1.355,6.876c1.355,-0.117 2.191,-1.151 2.196,-2.466c0.875,0.678 1.858,1.422 2.96,1.67m-13.648,-0.821c1.496,-1.144 2.728,-3.223 3.538,-5.08c-0.532,0.296 -0.951,0.519 -1.521,0.75l-0.16,0.061c-1.625,1.337 -4.523,3.364 -6.474,4.265c-2.015,0.741 -5.498,1.357 -7.593,1.561l-0.156,0.071c-0.566,0.239 -1.019,0.378 -1.605,0.544c1.886,0.741 4.228,1.34 6.094,1.091c2.187,-0.293 2.923,-1.395 3.271,-3.242c1.553,1.06 2.853,1.319 4.606,-0.021m7.192,-8.435c2.868,-0.88 6.287,-3.031 7.317,-5.689c1.339,1.766 1.455,3.94 0.386,5.19c-1.627,1.906 -5.589,1.699 -8.191,1.143l0.488,-0.644Zm8.524,-21.976c2.091,-1.23 5.812,-4.703 5.537,-7.404c1.651,0.993 1.759,2.49 1.299,3.844c-0.809,2.386 -4.657,3.362 -6.836,3.56m-0.505,2.616c1.406,2.651 2.302,6.589 1.152,9.197c2.195,-0.302 3.814,-1.757 3.942,-3.397c0.197,-2.498 -2.751,-5.154 -4.984,-6.601l-0.11,0.801Zm0.505,-1.343c2.091,1.23 5.812,4.703 5.537,7.405c1.651,-0.994 1.759,-2.49 1.299,-3.845c-0.809,-2.386 -4.657,-3.362 -6.836,-3.56m10.605,-0.636c-0.955,-0.604 -2.175,-0.773 -3.273,-0.912c0.926,-0.934 1.066,-2.256 0.19,-3.297c-0.492,2.226 -3.751,3.555 -5.819,3.904l-1.385,0.305l1.385,0.305c2.068,0.347 5.327,1.677 5.819,3.903c0.876,-1.041 0.736,-2.363 -0.19,-3.297c1.097,-0.139 2.319,-0.307 3.273,-0.911m-10.231,9.07c0.249,-1.867 -0.35,-4.208 -1.09,-6.094c-0.167,0.585 -0.305,1.039 -0.545,1.606l-0.071,0.156c-0.204,2.094 -0.82,5.576 -1.561,7.593c-0.901,1.949 -2.928,4.847 -4.266,6.473l-0.06,0.16c-0.231,0.571 -0.453,0.99 -0.75,1.521c1.857,-0.81 3.936,-2.042 5.081,-3.538c1.339,-1.753 1.08,-3.053 0.02,-4.606c1.848,-0.348 2.95,-1.085 3.242,-3.271m-0.879,-11.05c1.406,-2.65 2.302,-6.589 1.152,-9.196c2.195,0.301 3.814,1.757 3.942,3.396c0.197,2.498 -2.751,5.153 -4.984,6.601l-0.11,-0.801Zm-9.513,-21.567c0.61,-2.349 0.785,-7.435 -1.319,-9.151c1.87,-0.465 3.004,0.517 3.637,1.8c1.116,2.259 -0.916,5.67 -2.318,7.351m1.494,2.207c2.868,0.88 6.287,3.032 7.317,5.689c1.339,-1.766 1.455,-3.94 0.386,-5.191c-1.627,-1.904 -5.589,-1.698 -8.191,-1.142l0.488,0.644Zm-0.593,-1.306c2.349,-0.609 7.435,-0.785 9.152,1.319c0.464,-1.869 -0.518,-3.003 -1.8,-3.636c-2.26,-1.115 -5.671,0.915 -7.352,2.317m7.049,-7.95c-1.102,0.249 -2.084,0.992 -2.959,1.67c-0.006,-1.315 -0.842,-2.348 -2.197,-2.466c1.226,1.922 -0.138,5.167 -1.354,6.875l-0.764,1.195l1.195,-0.763c1.708,-1.217 4.953,-2.581 6.875,-1.355c-0.117,-1.355 -1.15,-2.191 -2.466,-2.196c0.678,-0.875 1.423,-1.858 1.67,-2.96m-0.82,13.649c-1.145,-1.496 -3.224,-2.729 -5.081,-3.539c0.297,0.532 0.519,0.951 0.75,1.521l0.06,0.16c1.338,1.625 3.365,4.524 4.266,6.474c0.741,2.015 1.357,5.498 1.561,7.593l0.071,0.156c0.24,0.566 0.378,1.02 0.545,1.605c0.74,-1.886 1.339,-4.227 1.09,-6.094c-0.292,-2.187 -1.394,-2.923 -3.242,-3.271c1.06,-1.553 1.319,-2.853 -0.02,-4.605m-8.436,-7.192c-0.88,-2.869 -3.031,-6.288 -5.689,-7.318c1.766,-1.339 3.94,-1.455 5.191,-0.386c1.904,1.628 1.698,5.59 1.143,8.192l-0.645,-0.488Zm-21.976,-8.524c-1.23,-2.092 -4.703,-5.812 -7.404,-5.538c0.993,-1.651 2.49,-1.758 3.844,-1.299c2.387,0.809 3.362,4.657 3.56,6.837m2.616,0.504c2.651,-1.406 6.59,-2.302 9.197,-1.151c-0.302,-2.195 -1.757,-3.814 -3.397,-3.943c-2.497,-0.197 -5.153,2.751 -6.601,4.984l0.801,0.11Zm-1.342,-0.504c1.23,-2.092 4.702,-5.812 7.404,-5.538c-0.993,-1.651 -2.49,-1.758 -3.845,-1.299c-2.386,0.809 -3.362,4.657 -3.559,6.837m-0.637,-10.606c-0.604,0.955 -0.773,2.175 -0.912,3.274c-0.934,-0.927 -2.256,-1.066 -3.296,-0.19c2.225,0.491 3.555,3.75 3.903,5.819l0.305,1.384l0.305,-1.384c0.348,-2.069 1.677,-5.328 3.903,-5.819c-1.041,-0.876 -2.362,-0.737 -3.297,0.19c-0.139,-1.098 -0.307,-2.319 -0.911,-3.274m-9.071,10.232c1.867,-0.249 4.209,0.35 6.095,1.09c-0.586,0.166 -1.04,0.305 -1.606,0.544l-0.156,0.071c-2.095,0.204 -5.578,0.82 -7.594,1.562c-1.95,0.901 -4.848,2.928 -6.473,4.265l-0.16,0.06c-0.57,0.231 -0.989,0.454 -1.521,0.75c0.811,-1.857 2.043,-3.936 3.539,-5.08c1.752,-1.339 3.053,-1.081 4.605,-0.022c0.349,-1.846 1.085,-2.949 3.271,-3.24m18.141,0c-1.866,-0.249 -4.208,0.35 -6.094,1.09c0.586,0.166 1.039,0.305 1.605,0.544l0.156,0.071c2.096,0.204 5.579,0.82 7.594,1.562c1.95,0.901 4.848,2.928 6.473,4.265l0.16,0.06c0.57,0.231 0.989,0.454 1.521,0.75c-0.81,-1.857 -2.042,-3.936 -3.538,-5.08c-1.753,-1.339 -3.053,-1.081 -4.606,-0.022c-0.348,-1.846 -1.084,-2.949 -3.271,-3.24m-11.05,0.878c-2.651,-1.406 -6.589,-2.302 -9.197,-1.151c0.302,-2.195 1.758,-3.814 3.398,-3.943c2.497,-0.197 5.153,2.751 6.6,4.984l-0.801,0.11Zm-22.16,10.819c-2.868,0.88 -6.286,3.032 -7.316,5.689c-1.339,-1.766 -1.455,-3.94 -0.387,-5.191c1.628,-1.904 5.59,-1.698 8.192,-1.143l-0.489,0.645Z" style="fill:#262626;"/><path d="M45.237,11.732c18.638,0 33.755,15.117 33.755,33.756c0,18.637 -15.117,33.755 -33.755,33.755c-18.638,0 -33.756,-15.118 -33.756,-33.755c0,-18.639 15.118,-33.756 33.756,-33.756" style="fill:#7a7a7a;"/><path d="M45.237,12.67c-18.122,0 -32.817,14.696 -32.817,32.818c0,18.121 14.695,32.817 32.817,32.817c18.121,0 32.817,-14.696 32.817,-32.817c0,-18.122 -14.696,-32.818 -32.817,-32.818" style="fill:#262626;"/></g><g><path d="M50.812,36.489c0.098,-0.268 -0.054,-0.505 -0.34,-0.505l-2.816,0c-0.286,0 -0.6,0.237 -0.698,0.505l-7.142,19.444c-0.099,0.267 0.054,0.537 0.339,0.537l2.817,0c0.285,0 0.599,-0.27 0.698,-0.537l7.142,-19.444Z" style="fill:#fefffe;fill-rule:nonzero;"/><path d="M27.455,46.901l9.222,-4.612l0,-3.879c0,0 -9.312,5.167 -11.205,6.265c-1.894,1.098 -1.497,3.135 -0.529,3.828c0.433,0.311 0.869,0.558 1.22,0.773c0.215,0.132 0.307,0.198 0.337,0.165c0.026,-0.027 -0.034,-0.134 -0.123,-0.281c-0.428,-0.715 -0.129,-1.534 1.078,-2.259" style="fill:#fefffe;fill-rule:nonzero;"/><path d="M36.677,51.039l-7.631,-3.84c0,0 -0.133,-0.049 -0.204,-0.056c-0.084,-0.009 -0.145,0.006 -0.201,0.018c-0.61,0.174 -1.267,0.666 -1.495,1.007c-0.558,0.836 -0.074,1.593 0.277,1.757l9.254,4.993l0,-3.879Z" style="fill:#fefffe;fill-rule:nonzero;"/><path d="M63.131,46.418l-9.08,4.612l0,3.879c0,0 9.17,-5.167 11.064,-6.265c1.893,-1.098 1.425,-3.134 0.458,-3.828c-0.433,-0.311 -0.905,-0.558 -1.255,-0.772c-0.216,-0.132 -0.325,-0.198 -0.355,-0.166c-0.026,0.028 0.096,0.135 0.184,0.282c0.429,0.715 0.191,1.533 -1.016,2.258" style="fill:#fefffe;fill-rule:nonzero;"/><path d="M54.051,42.281l7.489,3.84c0,0 0.063,0.049 0.134,0.056c0.084,0.008 0.109,-0.007 0.166,-0.019c0.609,-0.174 1.249,-0.666 1.476,-1.007c0.559,-0.836 0.207,-1.592 -0.144,-1.756l-9.121,-4.993l0,3.879Z" style="fill:#fefffe;fill-rule:nonzero;"/></g></g></svg>